PathFileType	4	(X/Y/Z)	Run_500 04
DataRate	CameraRate	NumFrames	NumMarkers	Units	OrigDataRate	OrigDataStartFrame	OrigNumFrames
100	100	5	41	mm	100	171	125
Frame#	Time	RASI			RPSI			RTH1			RTH2			RTH3			LTH1			LTH2			LTH3			RTB1			RTB2			RTB3			LTB1			LTB2			LTB3			RCAL			RTOE			RMT5			LCAL			LTOE			LACR			RACR			CLAV			C7			RUA1			RUA2			RUA3			RLEL			RMEL			LUA1			LUA2			LUA3			LLEL			LMEL			RFAsuperior			RFAradius			RFAulna			LFAsuperior			LFAradius			LFAulna			LPSI			LASI			
		X1	Y1	Z1	X2	Y2	Z2	X3	Y3	Z3	X4	Y4	Z4	X5	Y5	Z5	X6	Y6	Z6	X7	Y7	Z7	X8	Y8	Z8	X9	Y9	Z9	X10	Y10	Z10	X11	Y11	Z11	X12	Y12	Z12	X13	Y13	Z13	X14	Y14	Z14	X15	Y15	Z15	X16	Y16	Z16	X17	Y17	Z17	X18	Y18	Z18	X19	Y19	Z19	X20	Y20	Z20	X21	Y21	Z21	X22	Y22	Z22	X23	Y23	Z23	X24	Y24	Z24	X25	Y25	Z25	X26	Y26	Z26	X27	Y27	Z27	X28	Y28	Z28	X29	Y29	Z29	X30	Y30	Z30	X31	Y31	Z31	X32	Y32	Z32	X33	Y33	Z33	X34	Y34	Z34	X35	Y35	Z35	X36	Y36	Z36	X37	Y37	Z37	X38	Y38	Z38	X39	Y39	Z39	X40	Y40	Z40	X41	Y41	Z41	

164	1.89	1162.033475	954.262454	-285.741583	985.411894	1013.33962	-365.309497	1095.588367	772.3261649999999	-246.53456	1114.780397	670.751034	-252.656554	1033.50645	541.0069590000001	-262.024952	1097.495428	828.245461	-608.749418	1207.35874	734.771633	-592.836089	1191.064417	602.660996	-565.59523	875.63794	431.448182	-331.62118	790.364672	508.137848	-289.821216	714.389735	504.927548	-350.961207	1282.71081	342.512521	-462.272505	1241.168155	279.029591	-491.87686	1254.729566	211.447486	-424.85825	669.113265	645.684127	-351.09898	553.824963	439.625558	-366.694632	524.332385	455.382508	-293.131217	1125.482289	100.259375	-382.995962	1362.137058	81.161815	-396.727414	1165.938948	1466.465844	-606.979855	1206.763779	1464.296079	-267.159459	1235.175334	1399.83298	-413.18598	1131.567428	1501.57207	-431.692053	1149.849966	1346.154095	-174.687517	1082.365142	1347.164452	-159.375335	1092.847634	1273.629852	-140.510144	1053.610571	1209.847158	-106.255378	999.0999399999999	1207.227968	-182.765651	1060.744482	1386.586701	-671.237747	977.5673860000001	1367.225364	-627.430238	968.990674	1297.751609	-675.479031	920.50505	1245.820462	-684.578075	919.792377	1228.153317	-593.059889	1129.259594	1162.014683	-131.110267	1242.241403	1072.300279	-220.268376	1210.508301	1023.381772	-177.186653	993.543783	1200.360513	-701.796229	1167.448473	1160.035242	-663.707822	1141.057333	1096.416396	-684.374696	986.561413	1022.51679	-457.641743	1156.911443	971.010622	-538.75389	
165	1.9	1158.689249	948.127822	-285.868679	982.273194	1008.56061	-362.129866	1100.996142	767.888814	-246.208205	1128.442966	668.516643	-250.190299	1058.058426	533.341932	-259.289751	1088.632298	828.714416	-608.611527	1199.557881	730.337484	-596.67038	1182.320457	600.659049	-567.089148	908.017137	426.686879	-331.066169	823.053823	501.893734	-287.805616	747.683971	499.977514	-349.904956	1260.368671	339.837816	-461.794611	1214.667517	279.743365	-492.457709	1219.374891	210.900456	-425.096431	698.1158339999999	641.648457	-348.372724	590.877583	431.247437	-362.641521	563.81762	444.772554	-287.851781	1077.482743	102.934603	-382.363854	1314.22603	78.42319500000001	-393.420199	1171.35476	1459.05668	-609.585232	1203.125011	1457.042953	-264.476085	1235.739926	1393.617616	-411.444128	1133.095173	1497.869909	-434.483651	1139.437627	1338.283561	-175.68359	1069.958067	1340.62812	-163.955803	1078.068153	1267.674164	-144.510164	1035.434724	1205.009263	-111.519752	986.001784	1202.209987	-190.698817	1074.229142	1367.270894	-676.530477	987.383186	1346.368507	-640.537541	985.754101	1273.915754	-683.384318	939.951983	1222.107619	-695.095193	934.355157	1205.234243	-604.017813	1110.70064	1153.605331	-132.651377	1222.001134	1054.813236	-210.531515	1185.461148	1009.01067	-167.39654	1014.737146	1179.435872	-707.858741	1187.402676	1146.652514	-662.039572	1164.068333	1081.857475	-683.583967	982.400794	1018.805352	-454.642038	1152.189006	965.902819	-536.968854	
166	1.91	1154.959367	943.035354	-285.597138	979.685194	1004.870482	-358.944222	1106.82211	765.712956	-245.432037	1143.398879	669.240777	-248.008177	1085.046638	529.867777	-257.540381	1081.160129	829.622633	-607.895696	1189.666924	726.153592	-598.474618	1169.15005	596.809087	-567.153373	942.719106	422.678206	-331.230828	857.425956	495.060955	-286.195402	781.91133	492.631613	-348.708428	1232.917472	334.525082	-462.331277	1183.070395	277.942462	-494.145946	1180.659655	208.139548	-426.67635	724.4768790000001	634.0341539999999	-345.236274	630.2604669999999	417.519321	-359.049902	605.770302	427.898836	-283.236027	1028.808655	105.012649	-383.007934	1265.510944	76.908214	-392.621094	1176.848449	1453.168316	-610.5821570000001	1199.614953	1451.256352	-262.325826	1235.796966	1388.973693	-409.274971	1134.394898	1495.87604	-436.058564	1128.803426	1333.303028	-176.687759	1057.440896	1337.504743	-169.279451	1062.279035	1265.67169	-148.304734	1016.403272	1203.84177	-116.63121	971.435846	1200.766072	-197.740073	1089.890881	1351.221213	-679.849269	999.8080200000001	1328.275703	-653.043392	1004.887708	1253.338939	-689.854606	963.06393	1200.504503	-704.573384	950.08377	1183.933045	-614.584342	1090.984264	1149.426394	-133.823611	1200.703579	1043.501578	-202.308393	1159.387311	1000.329156	-160.403816	1039.691737	1161.274591	-712.396273	1209.040068	1135.544321	-659.367723	1188.778221	1069.570985	-681.97961	979.111984	1015.762916	-451.245732	1147.831339	960.182511	-533.524447	
167	1.92	1151.129079	939.564912	-284.467529	977.445026	1002.855187	-356.756122	1112.388805	765.619042	-244.262147	1159.039531	672.810186	-246.234697	1113.59309	530.986212	-256.706216	1075.892174	829.126847	-607.102286	1177.816317	721.255092	-598.269823	1151.722011	590.954321	-566.294426	979.097135	419.741076	-332.024335	892.4628290000001	488.036688	-285.293402	816.083092	483.341892	-347.304387	1200.943037	325.891416	-463.118923	1147.313642	272.65989	-495.68818	1139.063784	203.233158	-427.587898	748.156636	622.697848	-342.830184	671.604657	399.283439	-355.246452	649.758329	406.718785	-278.742904	979.647378	107.018761	-384.184939	1216.278262	75.275522	-392.801484	1182.502741	1449.178065	-610.114469	1195.496458	1447.75599	-260.737964	1235.144572	1386.110139	-406.958579	1134.769179	1494.46564	-436.514733	1117.361913	1332.158771	-177.462782	1044.786827	1338.643476	-175.00128	1045.573009	1268.234544	-151.860112	996.765267	1207.327319	-121.416207	955.921421	1203.459385	-203.988776	1105.023769	1340.618348	-681.05458	1013.406276	1314.167725	-663.044443	1024.88982	1237.956828	-694.444678	988.36541	1183.00459	-711.8963680000001	966.640224	1165.842446	-623.692111	1070.105274	1149.782526	-134.23509	1179.258367	1038.952458	-196.47511	1133.504173	997.729428	-157.146694	1067.358986	1147.714737	-714.8833509999999	1231.807374	1128.568224	-655.73968	1214.837356	1061.341119	-679.261318	976.718081	1014.137136	-448.552207	1144.232542	955.522577	-530.005465	
168	1.93	1147.573433	938.027261	-282.653952	975.651866	1002.793129	-356.35227	1117.308772	767.127264	-242.958406	1174.703048	679.22435	-245.149863	1142.552034	536.511978	-256.771513	1071.993535	827.009902	-606.815714	1165.234342	714.664853	-597.223157	1131.752742	584.50414	-565.346485	1016.60967	418.384594	-333.333503	927.016944	481.083064	-285.304013	849.709513	472.556625	-346.178009	1165.500441	315.995109	-463.08537	1109.240664	265.704247	-496.111406	1095.487216	198.229832	-427.238882	769.659622	607.464283	-341.922292	714.787979	377.574136	-350.728085	695.33716	383.140512	-273.84726	930.285745	109.525407	-385.423578	1166.520969	73.79393899999999	-392.692934	1188.55818	1447.433954	-608.884816	1190.072316	1447.110577	-259.592704	1233.881385	1385.120017	-404.647965	1133.912043	1493.149759	-436.58075	1104.801757	1335.202516	-177.91657	1031.98974	1343.971352	-180.899539	1028.563179	1275.137302	-155.237227	977.075428	1215.479144	-125.967767	940.658395	1209.86834	-210.157446	1117.483476	1335.734119	-680.792993	1026.496696	1304.210258	-669.559089	1044.275727	1228.160317	-697.133573	1013.238965	1170.952252	-716.422893	984.069494	1152.373176	-630.210797	1048.799598	1154.698323	-134.351491	1158.586875	1041.109911	-193.147819	1109.157605	1001.072997	-157.46132	1094.979426	1139.958439	-715.16989	1254.459202	1127.213214	-650.952676	1241.270073	1058.839266	-675.126586	974.982081	1014.41893	-447.538426	1141.534929	953.6302030000001	-528.54988	
